<?xml version="1.0" standalone="no"?>
<!DOCTYPE svg PUBLIC "-//W3C//DTD SVG 20010904//EN"
 "http://www.w3.org/TR/2001/REC-SVG-20010904/DTD/svg10.dtd">
<svg version="1.0" xmlns="http://www.w3.org/2000/svg"
 width="256.000000pt" height="256.000000pt" viewBox="0 0 256.000000 256.000000"
 preserveAspectRatio="xMidYMid meet">

<g transform="translate(0.000000,256.000000) scale(0.100000,-0.100000)"
fill="#000000" stroke="none">
<path d="M1290 2193 c-8 -3 -24 -8 -35 -13 -11 -5 -36 -15 -55 -23 -19 -8 -57
-25 -85 -37 -27 -12 -63 -28 -80 -35 -16 -8 -56 -25 -88 -39 -32 -14 -59 -26
-62 -26 -2 0 -43 -18 -90 -40 -47 -22 -90 -40 -95 -40 -4 0 -25 -9 -47 -19
-21 -11 -56 -27 -78 -36 -22 -10 -49 -21 -60 -25 -102 -43 -174 -82 -169 -92
3 -7 220 -120 482 -251 l477 -238 177 91 c224 114 240 123 240 135 1 6 -17 19
-38 30 -22 11 -41 22 -44 25 -3 3 -27 17 -55 31 -54 27 -127 68 -215 118 -30
18 -63 35 -72 38 -21 6 -23 24 -6 41 8 8 31 1 92 -31 45 -23 83 -44 86 -47 3
-3 32 -19 65 -35 33 -17 62 -32 65 -35 3 -3 28 -17 55 -32 28 -14 71 -37 97
-51 l48 -26 52 27 c29 15 55 30 56 35 2 4 12 7 23 7 10 0 19 4 19 9 0 5 14 12
30 16 17 4 30 11 30 16 0 5 9 9 19 9 11 0 21 3 23 8 2 4 44 27 95 52 51 25 95
51 97 58 5 11 -29 30 -164 89 -19 9 -57 26 -85 38 -27 13 -66 30 -85 38 -19 8
-64 29 -100 45 -36 16 -87 39 -115 51 -27 12 -70 31 -95 43 -46 21 -77 35
-140 61 -19 8 -55 24 -80 35 -60 26 -72 30 -90 25z"/>
<path d="M1872 1514 l-52 -25 0 -359 c0 -237 3 -360 10 -360 11 0 24 6 75 33
l30 16 3 352 c1 194 -1 356 -6 361 -4 4 -31 -4 -60 -18z"/>
<path d="M679 1423 c-3 -189 2 -578 7 -595 3 -9 21 -24 42 -33 20 -10 55 -26
76 -36 22 -11 47 -19 56 -19 9 0 20 -4 25 -9 9 -7 38 -15 205 -52 70 -16 359
-16 425 -1 28 6 84 19 125 28 41 9 79 20 85 25 5 5 17 9 27 9 10 0 18 8 19 18
1 20 1 673 0 685 -1 11 -41 8 -41 -3 0 -5 -6 -10 -14 -10 -13 0 -75 -29 -86
-40 -10 -10 -315 -160 -325 -160 -6 0 -141 65 -300 145 -159 80 -298 145 -307
145 -16 0 -18 -11 -19 -97z m146 -65 c3 -13 4 -95 3 -183 -3 -157 -3 -160 -25
-163 l-23 -3 0 169 c0 94 3 177 6 186 9 23 33 19 39 -6z m1 -443 c6 -24 -9
-55 -27 -55 -12 0 -21 38 -14 60 9 28 33 25 41 -5z"/>
</g>
</svg>
